<svg xmlns="http://www.w3.org/2000/svg" version="1.1" xmlns:xlink="http://www.w3.org/1999/xlink" xmlns:svgjs="http://svgjs.dev/svgjs" viewBox="0 0 800 800" opacity="1"><defs><linearGradient x1="50%" y1="0%" x2="50%" y2="100%" id="ssscribble-grad"><stop stop-color="hsl(232, 95%, 52%)" stop-opacity="1" offset="0%"></stop><stop stop-color="hsl(294, 100%, 49%)" stop-opacity="1" offset="100%"></stop></linearGradient></defs><g fill="none" stroke-width="1.75" stroke="url(#ssscribble-grad)" stroke-linecap="round"><path d="M708.44 341.79C900.8 374.09 1060.1 423.81 1062.85 489.54 912.2 555.4 719.38 635.3 611.93 721.36 644.94 794.69 777.99 853.5 915.4 878.61 987.52 863.98 951.56 803.28 836.1 706.99 681.16 617.58 544.82 560.88 455.79 576.85 416.13 676.02 419.42 833.32 441.65 987.45 480.75 1064.47 509.99 1024.69 520.17 882.49 529.47 726.37 518.01 646.87 485.7 703.92 453.4 867.27 401.77 1024.83 331.53 1080.45 260.43 1007.36 172.41 847.52 77.32 688.58 -0.88 600.04 -57.39 612.98 -67.52 700.47 -28.28 822.46 61.66 915.53 174.26 948.47 247.37 918.85 245.02 835.78 139.26 728.51 -31.78 608.99 -193.81 504.33 -250.5 422.83 -166.73 355.9 7.69 308.66 145.87 272.86 130.65 242.71 -35.19 213.6 -227.55 181.29 -286.35 148.98 -163.61 115.01 34.92 84.23 163.35 59.09 137.11 47.55 -3.86 58.48 -162.36 83.99 -226.02 135.44 -165.64 205.16 -14.22 262.65 151.85 299.34 267.92 286.63 309.33 211.36 279.55 79.99 214.61 -75.63 131.38 -196.77 70.02 -238.71 41.43 -173.87 34.01 -38.62 53.33 102.83 86.15 163.47 126.32 95.42 165.81 -68.66 198.12 -232.02 230.43 -289.12 254.03 -203.1 274.78 -34.51 302.9 120.16 342.35 178.35 405.76 125.04 490.34 -5.39 604.91 -133.72 737.93 -199.26 852.67 -181.62 928.83 -86.62 929.76 45.12 856.04 183.76 728.27 290.85 610.49 355.29 583.75 379.98 676.38 374.39 858.57 357.05 1023.23 326.98 1067.86 305.85 951.9 300.92 765.83 296.12 649.64 309.48 708.44 341.79Q708.44 341.79 708.44 341.79" opacity="0.34"></path><path d="M672.48 535.72C848.73 565.55 1007.18 607.86 1041.3 658.56 934.54 705.55 755.71 752.84 610.96 789.95 569.18 809.74 638.17 804.15 762.44 765.4 884.85 707.27 940.32 628.95 915.58 552.42 823.3 513.52 697.08 527.05 573.93 608.26 464.63 740.06 390.51 889.11 347.04 999.76 326.23 1025.04 318.39 950.65 310.39 806 307.44 669.92 293.33 610.07 263.51 667.93 233.68 817.15 189.56 968.51 136.27 1042.02 88.02 1006.6 41.61 879.69 10.74 724.34 2.52 600.19 27.52 552.14 90.86 581.37 168.05 670.26 251.45 772.71 304.64 851.46 290.29 894.31 199.47 885.37 46 836.41 -109.31 756.96 -205.05 665.99 -185.13 579.26 -62.24 491.65 99.61 419.05 194.86 362.55 149.22 308.76 -15.26 267.43 -191.51 237.6 -252.7 207.78 -155.49 190.87 25.38 188.41 174.86 188.66 204.68 207.01 115.28 242.93 -95.17 298.91 -40.27 339.4 172.98 240.55 292.82 122.71 356.01 -15.09 367.61 -135.04 336.34 -195.34 288.11 -174.06 244.58 -71.77 199.74 61.7 175.71 171.65 172.82 195.58 173.94 110.59 190.74 -46.79 220.55 -196.02 250.38 -253.92 291.81 -188.05 346.93 -40.47 406.06 115.69 484.33 207.07 580.85 203.67 676.07 114.9 773.41 -7.39 850.66 -108.15 885.05 -158.33 864.69 -136.5 783.95 -58.53 677.98 57.07 576.92 178.21 536.51 282.31 593.59 367.03 737.71 421.74 911.35 453.64 1022.62 468.22 1009.81 475.18 871.87 484.44 702.5 489.98 611.29 505.9 672.44 535.71Q672.48 535.72 672.48 535.72" opacity="0.51"></path><path d="M636.48 621.98C873.3 689.55 539.01 663.99 608.02 583.09 724.49 528.63 827.61 481 882.71 460.75 882.82 485.96 827.72 560.28 740.93 678.72 633.49 811.31 531.41 927.63 446.67 986.31 371.19 965.78 315.39 868.58 274.2 730.1 237.95 615.98 207.83 574.16 180.49 631.93 153.16 767.08 129.9 909.97 114.59 996.03 104.22 994.43 110.29 905.37 138.39 769.5 175.75 631.98 232.81 538.73 298.11 508.33 342.77 540.58 358.63 612.64 322.69 694.45 231.75 773.26 96.22 821.75 -48.71 835.6 -148.91 821.24 -167.97 781.12 -88.43 728.1 48.69 663.66 182.3 600.96 233.97 547.28 164.06 492.37 4.52 450.06 -155.51 422.72 -217.86 395.38 -144.68 384.3 13.68 387.65 171.15 389.77 246.49 402.74 215.42 419.8 100.3 425.45 -31.28 420.56 -118.75 392.79 -135.44 336.81 -73.78 249.08 36.12 134.45 168.78 16.81 285.82 -87.66 369.45 -148.4 420.12 -146.47 437.62 -77.76 436.5 39.71 418.94 155.54 402.66 229.06 397.19 220.13 389.87 123.55 398.7 -24.86 426.04 -160.02 453.37 -217.83 497.92 -170.5 556.79 -45.84 613.82 103.19 679.82 215.96 744.77 256.54 793.28 217.91 820.81 126.12 812.29 21.99 770.8 -67.98 693.01 -109.89 596.18 -99.27 522.09 -43.19 492.83 43.68 537.96 140.26 653.89 241.9 810 329.72 945.16 399.23 996.29 458.66 936.55 502.81 789.64 537 641.81 567.23 574.13 594.64 636.44 621.97Q636.48 621.98 636.48 621.98" opacity="0.72"></path><path d="M600.44 532.14C817.4 563.23 893.1 559.07 692.41 520.65 526.9 473.5 606.82 412.64 741.4 459.22 809.51 535.08 835.16 641.35 821.57 762.11 776.45 867.83 711.09 936.87 640.77 944.57 563.27 888.99 494.79 781.32 440.16 656.18 386.18 564.84 346.33 539.14 321.48 595.92 296.63 717.11 287.94 849.57 295.06 942.85 302.82 969.49 326.08 919.07 360.51 814.06 387.76 684.58 412.2 568.97 419.01 492.58 394.3 464.86 332.96 483.4 232.28 531.48 112.06 600.7 -11.25 666.21 -102.49 715.32 -130.7 751.98 -83.59 764.92 28.99 758.52 156.82 740.27 251.96 711.89 263.01 680.49 175.57 645.96 24.25 614.66 -119.55 589.81 -181.84 564.95 -130.69 547.72 1.95 535.38 155.31 519.91 261.66 503.08 285.36 478.27 224.85 441.6 116.12 387.74 7.17 312.78 -72.63 225.38 -92.63 124.18 -55.89 22.38 26.16 -58.26 130.36 -106.28 233.44 -104.45 331.55 -53.95 407.35 39.34 460.95 150.61 500.21 237.41 525.83 273.71 545.87 237.5 561.56 134.65 580.07 -2.83 604.92 -124.03 629.78 -180.85 659.8 -150.14 690.97 -49.22 717.81 85.51 737.4 207.34 741.21 281.14 730.68 291.67 695.81 244.93 636 165.08 571.23 70.2 502.71 -6.59 453.22 -49.89 449.05 -59.61 498.52 -32.51 604.21 19.58 739.03 91.21 870.05 168.21 948.78 240.39 943.3 313.64 851.09 375.33 707.32 424.01 584.27 471.24 538.15 507.29 600.44 532.14Q600.44 532.14 600.44 532.14" opacity="0.88"></path><path d="M564.44 337.47C692.13 359.84 827.82 369.41 917.1 367.88 931.96 367.53 866.63 358.99 750.04 347.05 617.16 342.99 509.54 344.92 450.5 361.12 446.34 396.78 487.97 455.38 553.66 537.99 633.15 633.31 699.79 736.18 742.99 828.93 767.38 890.88 765.99 909.83 746.39 875.65 714.05 798.62 675.3 692.06 637.93 585.6 597.78 516.75 564.92 505.02 542.56 559.92 520.19 667.33 509.37 787.73 507.33 883.12 502.52 931.21 500.57 916.42 494.15 848.12 474.99 743.62 439.55 629.72 380.68 530.48 303.01 457.79 204.26 421.98 95.45 419.11 0.44 445.55 -67.7 487.21 -86.82 531.42 -51.07 580.03 36.48 617.4 152.96 640.25 253.16 658.09 305.76 662.12 282.27 654.93 184.36 645.42 44.13 628.69 -83.55 606.32 -144.63 583.95 -113.12 557.01 -7.76 524.34 131.26 489.35 252.44 444.63 318.97 388.04 316.71 326.42 255.83 252.22 165.21 169.14 66.07 90.46 -6.98 16.67 -40.27 -39.08 -34.92 -65.54 7.57 -56.25 72.3 -6.86 154.06 69.07 236 162.91 308.74 251.01 379.46 302.94 436.38 305.01 479.9 248.31 521.08 144.3 552.42 19.37 574.79 -88.03 597.16 -142.96 609.49 -126.72 610.5 -49.26 609.16 65.82 592.94 185.12 560.98 278.56 527 329.15 481.9 330.26 434.61 291.61 404.35 222.15 393.97 145.8 417.93 79.78 480.54 26.49 580.12 0 702.55 -1.18 816.45 17.09 897.4 51.99 916.06 94.81 865.92 145.52 757.47 194.75 627.07 237.28 530.33 281 503.36 315.1 564.44 337.47Q564.44 337.47 564.44 337.47" opacity="0.44"></path><path d="M528.48 192.4C640.22 212.28 762.93 227.91 856.78 241.02 898.87 256.22 875.55 272.97 799.04 295.35 688.95 325.28 574.71 366.78 480.7 422.84 418.26 488.58 395.61 567.52 406.26 654.23 445.55 735.35 497.01 806.41 547.49 854.02 599.21 868.83 636.87 845.61 658.49 784.11 673.4 699.81 674.71 604.05 666.03 519.56 654.69 471.92 638.09 471.81 618.2 523.93 598.32 617.78 576.11 724.83 549.94 817.67 521.13 879.78 483.66 894.55 434.28 863.09 378.21 793.67 307.81 701.34 225.44 604.4 144.32 512.71 64.32 440.8 -1.02 393.07 -37.73 368.62 -38.66 365.19 3.07 375.25 76.38 398.32 172.79 423.41 268.31 444.26 330.24 467.48 342.24 481.53 292.49 484.56 190.96 487.33 64.22 479.05 -47.51 459.17 -106.23 439.29 -91.6 408.76 -13.44 368.49 103.63 327.98 224 277.76 316.13 220.08 362.64 164.77 357.43 106.94 311.77 53.22 236.04 12.51 155.66 -12.6 88.33 -14.22 36.68 7.43 13.82 55.76 17.05 126.75 40.69 202.98 80.05 277.48 125.85 332.34 179.06 349.24 229.15 323.17 271.14 253.4 314.03 152.91 346.37 41.82 366.26 -52.02 386.15 -104.17 392.63 -100.05 387.24 -44.75 382.75 47.39 368.83 154.47 350.07 253.35 338.73 329.44 332.11 370.5 339.1 376.39 366.5 349.49 417.89 302 495.6 246.94 588.98 186.29 692.94 135.89 789.37 100.79 855.75 75.37 878.81 66.61 846.89 71.14 769.35 83.22 660.3 102.64 550.89 124.93 480.38 149.32 469.75 172.51 528.44 192.39Q528.48 192.4 528.48 192.4" opacity="0.07"></path><path d="M492.43 212.02C588.45 229.42 696.35 251.93 788.49 279.89 848.29 309.11 860.03 345.94 825.68 391.26 657.38 489.57 470.77 620.58 364.42 749.67 350.66 821.79 397.28 803.55 441.9 677.36 467.85 598.47 484.33 520.49 489.65 459.11 494.6 430.46 488.61 439.47 471.21 487.96 453.82 568.55 425.84 661.36 388.08 747.57 349.94 816.22 301.82 852.3 245.72 852.77 140.8 759.86 39.88 598.47 8.04 453.57 68.78 350.06 218.49 306.99 361.29 294.47 382.89 296.52 361.24 297.44 294.73 293.97 195.88 291.65 84.45 282.5 -11.56 265.1 -66.7 247.7 -65.75 222.89 -13.07 192.39 77.54 163.06 184 130.49 282.93 98.29 400.41 50.51 374.4 39.28 274.65 97.18 152 196.48 88.25 320.97 85.38 388.38 95.11 375.15 112.15 329.17 132.04 253.81 154.04 160.88 174.8 64.55 192.2 -16.03 209.59 -64.52 222.81 -70 233.61 -34.64 246.53 33.44 261.14 121.32 281.56 212.97 344.73 364.66 462.78 419.81 631.03 393.29 776.39 309.81 839.3 233.1 747.33 195.08 661.15 179.91 564.58 174.72 480.68 178.31 434.71 183.17 437.29 194.62 492.43 212.02Q492.43 212.02 492.43 212.02" opacity="0.92"></path><path d="M456.48 380.73C632.73 410.55 785.37 473.33 819.9 559.85 732.86 640.45 578.03 723.98 436.9 774.59 333 770.64 287.95 696.16 274.75 564.93 283 448.12 281.46 394.07 251.63 451.93 221.81 601.16 166.53 746.35 106.6 814.31 68.11 791.15 66.62 689.82 131.43 565.35 233.47 437.77 356.67 343.16 421.85 283.29 365.46 239.08 200.73 207.82 24.48 178 -36.7 148.17 59.78 122.61 230.41 115.13 384.84 123.32 449.71 171.39 432.76 259.88 356.19 345.26 278.81 414.96 235.18 416.26 199.82 326.44 200.29 169.16 230.11 19.93 259.92 -37.93 316.27 28.21 403.31 166.87 498.62 319.96 622.55 426.07 738.22 469.11 794.27 457.59 761.05 420.61 628.5 391.69 479.72 356.85 395.3 350.89 456.44 380.72Q456.48 380.73 456.48 380.73" opacity="0.38"></path><path d="M420.48 564.74C564.31 589.59 704.97 631.06 777.15 676.88 767.36 711.47 682.94 728.58 571.33 708.32 449.79 656.93 354.27 565.33 291.46 456.8 241.39 380.69 208.2 359.15 183.34 415.93 158.49 537.13 144.33 664.02 151.33 748.34 171.07 778.42 227.81 744.07 316.77 671.91 395.81 574.89 453.86 481.39 445.44 408.82 355.04 339.56 204.31 291.89 60.48 267.03 -1.83 242.18 49.42 242.5 172.98 268.68 320.26 298.19 433.68 352.9 491.62 417.34 500.29 456.93 478.25 464.93 455.9 416.64 424.55 314.12 416.49 177.17 441.35 55.97 466.2 -0.84 521.62 30.74 596.03 125.07 661.45 251.82 722.27 369.79 746.18 453.75 720.81 506.59 633.76 528.27 504.69 536.75 399.35 534 358.16 539.88 420.48 564.74Q420.48 564.74 420.48 564.74" opacity="0.72"></path><path d="M384.48 618.06C496.21 637.94 614.02 651.43 698.99 653.09 742.17 647.9 730.53 620.45 682.21 567.59 607.71 507.46 529.3 432.62 465.1 362.59 400.49 325.21 355.96 327.81 336.08 379.93 316.2 473.78 322.85 576.18 353.01 659.05 382.75 717.66 430.12 735.09 478.56 719.01 500.83 678.91 491.38 625.87 433.62 576.04 334.08 522.03 208.21 481.42 96.48 461.54 37.76 441.66 53.27 444.39 125.77 463.94 233.84 479.32 344.71 501.32 433.38 515.37 502.44 505.39 543.24 466.87 565.94 393.68 578.47 296.24 590.52 185.78 610.4 91.93 630.28 39.81 656.11 45.27 678.04 97.22 689.8 181.82 680.04 277.75 637.05 363.94 574.45 442.87 484.66 501.34 391.16 540.99 333.22 573.78 325.75 598.17 384.44 618.05Q384.48 618.06 384.48 618.06" opacity="0.21"></path><path d="M348.21 498.35C524.36 528.17 665.28 489.78 696.54 399.79 657.03 328.62 584.13 286.01 554.31 343.87 524.48 493.1 543.38 625.81 543.81 676.75 473.46 678.4 308.36 636.99 132.21 607.17 71.33 577.35 166.75 564.76 303.2 524.02 446.22 433.99 535.23 277.1 565.05 127.87 594.87 70.01 559.87 136.8 455.94 247.05 358.57 376.13 287.33 468.53 348.21 498.35Q348.21 498.35 348.21 498.35" opacity="0.23"></path><path d="M312.48 300.68C424.21 320.56 532.18 299.93 593.19 263.55 633.56 247.89 634.71 255.81 614.83 307.93 594.94 401.79 557.79 494.86 491.36 552.21 404.29 598.35 280.21 608.4 168.48 588.52 109.75 568.64 127.14 522.58 183.41 450.38 263.7 366.98 331.17 257.79 351.05 163.93 370.93 111.81 339.46 120.01 285.23 161.73 255.03 224.17 253.75 280.8 312.48 300.68Q312.48 300.68 312.48 300.68" opacity="0.95"></path></g></svg>